<svg id="Group_128" data-name="Group 128" xmlns="http://www.w3.org/2000/svg" xmlns:xlink="http://www.w3.org/1999/xlink" width="154.632" height="86.636" viewBox="0 0 154.632 86.636">
  <defs>
    <clipPath id="clip-path">
      <rect id="Rectangle_156" data-name="Rectangle 156" width="154.632" height="86.636" fill="none"/>
    </clipPath>
  </defs>
  <g id="Group_127" data-name="Group 127" clip-path="url(#clip-path)">
    <path id="Path_275" data-name="Path 275" d="M46.372,21.324H2.052A2.052,2.052,0,0,1,0,19.271V2.052A2.052,2.052,0,0,1,2.052,0H36.338a2.052,2.052,0,0,1,1.773,1.019L48.145,18.238a2.052,2.052,0,0,1-1.773,3.086" fill="red"/>
    <path id="Path_276" data-name="Path 276" d="M84.418,150.408H2.052A2.053,2.053,0,0,1,0,148.356V129.082H.057V98.492A2.052,2.052,0,0,1,2.109,96.44H55.358a2.053,2.053,0,0,1,1.773,1.019l10.036,17.219a2.052,2.052,0,0,1-1.773,3.086H23.433a2.053,2.053,0,0,0-2.052,2.052v7.213a2.052,2.052,0,0,0,2.052,2.052H74.381a2.053,2.053,0,0,1,1.773,1.019l10.037,17.222a2.052,2.052,0,0,1-1.773,3.086" transform="translate(0 -63.798)" fill="#00326d"/>
    <path id="Path_277" data-name="Path 277" d="M260.323,3.274l-48.1,82.391a2.1,2.1,0,0,1-3.634,0L160.495,3.274A2.1,2.1,0,0,1,162.312.109h38.7a1.9,1.9,0,0,1,1.868,2.22l-3.774,21.728a.886.886,0,0,0,.28.816.923.923,0,0,0,.839.208l10.4-2.633-3.3,23.976a.9.9,0,0,0,.606.973.91.91,0,0,0,.8-.111.687.687,0,0,0,.074-.05.85.85,0,0,0,.205-.24L230.915,9.3a.887.887,0,0,0-.061-.987.911.911,0,0,0-.947-.332l-7.769,1.932-4.56,1.131a.38.38,0,0,1-.417-.564l5.67-9.456a1.9,1.9,0,0,1,1.626-.921h34.048a2.1,2.1,0,0,1,1.817,3.165" transform="translate(-105.981 -0.072)" fill="#00326d"/>
  </g>
</svg>
